<svg width="78" height="27" viewBox="0 0 78 27" fill="none" xmlns="http://www.w3.org/2000/svg">
<g clip-path="url(#clip0_6_21)">
<path d="M76.4417 18.2966V25.2939H77.8339V27.0446H74.1521V18.2966H76.4417Z" fill="#999999"/>
<path d="M72.4498 18.2966L73.7605 27.0446H71.4165L71.3023 25.4723H70.4811L70.3451 27.0446H67.974L69.1378 18.2966H72.4498ZM71.2371 23.9215C71.121 22.9309 71.005 21.7079 70.889 20.2526C70.657 21.9241 70.5119 23.147 70.4539 23.9215H71.2371Z" fill="#999999"/>
<path d="M67.6749 22.1114H65.3853V20.5876C65.3853 20.1446 65.3599 19.869 65.3091 19.7609C65.262 19.6493 65.155 19.5934 64.9883 19.5934C64.7997 19.5934 64.6801 19.6601 64.6293 19.7934C64.5786 19.9266 64.5532 20.2148 64.5532 20.6579V24.7212C64.5532 25.1463 64.5786 25.4236 64.6293 25.5533C64.6801 25.683 64.7943 25.7478 64.972 25.7478C65.1424 25.7478 65.2529 25.683 65.3037 25.5533C65.3581 25.4236 65.3853 25.1192 65.3853 24.6401V23.5433H67.6749V23.8837C67.6749 24.7878 67.6096 25.429 67.4791 25.8073C67.3522 26.1855 67.0676 26.5169 66.6252 26.8015C66.1865 27.086 65.6445 27.2283 64.9991 27.2283C64.3284 27.2283 63.7755 27.1077 63.3404 26.8663C62.9053 26.625 62.6171 26.2918 62.4757 25.8667C62.3343 25.438 62.2636 24.795 62.2636 23.9377V21.3819C62.2636 20.7515 62.2854 20.2797 62.3289 19.9663C62.3724 19.6493 62.5011 19.3449 62.715 19.0531C62.9325 18.7613 63.2316 18.5326 63.6123 18.3669C63.9967 18.1976 64.4372 18.1129 64.9339 18.1129C65.6082 18.1129 66.1648 18.2426 66.6035 18.502C67.0422 18.7613 67.3304 19.0855 67.4682 19.4746C67.606 19.86 67.6749 20.4616 67.6749 21.2793V22.1114Z" fill="#999999"/>
<path d="M61.4098 18.2966V27.0446H59.1202V18.2966H61.4098Z" fill="#999999"/>
<path d="M58.2011 18.2966V27.0446H56.1997V21.1388L55.4003 27.0446H53.9808L53.1379 21.2739V27.0446H51.1365V18.2966H54.1005C54.1875 18.8226 54.2799 19.4421 54.3778 20.1554L54.6933 22.3815L55.2153 18.2966H58.2011Z" fill="#999999"/>
<path d="M46.5029 18.2966H50.3207V20.0473H48.7925V21.7061H50.2228V23.3704H48.7925V25.2939H50.473V27.0446H46.5029V18.2966Z" fill="#999999"/>
<path d="M45.5784 18.2966V27.0446H43.2888V23.3704H42.6036V27.0446H40.314V18.2966H42.6036V21.4252H43.2888V18.2966H45.5784Z" fill="#999999"/>
<path d="M39.4928 22.1114H37.2032V20.5876C37.2032 20.1446 37.1778 19.869 37.127 19.7609C37.0799 19.6493 36.9729 19.5934 36.8062 19.5934C36.6176 19.5934 36.498 19.6601 36.4472 19.7934C36.3965 19.9266 36.3711 20.2148 36.3711 20.6579V24.7212C36.3711 25.1463 36.3965 25.4236 36.4472 25.5533C36.498 25.683 36.6122 25.7478 36.7898 25.7478C36.9603 25.7478 37.0708 25.683 37.1216 25.5533C37.176 25.4236 37.2032 25.1192 37.2032 24.6401V23.5433H39.4928V23.8837C39.4928 24.7878 39.4275 25.429 39.297 25.8073C39.1701 26.1855 38.8855 26.5169 38.4431 26.8015C38.0044 27.086 37.4624 27.2283 36.817 27.2283C36.1463 27.2283 35.5934 27.1077 35.1583 26.8663C34.7232 26.625 34.435 26.2918 34.2936 25.8667C34.1522 25.438 34.0815 24.795 34.0815 23.9377V21.3819C34.0815 20.7515 34.1032 20.2797 34.1468 19.9663C34.1903 19.6493 34.319 19.3449 34.5329 19.0531C34.7504 18.7613 35.0495 18.5326 35.4302 18.3669C35.8145 18.1976 36.2551 18.1129 36.7518 18.1129C37.4261 18.1129 37.9827 18.2426 38.4214 18.502C38.8601 18.7613 39.1483 19.0855 39.2861 19.4746C39.4239 19.86 39.4928 20.4616 39.4928 21.2793V22.1114Z" fill="#999999"/>
<path d="M27.7402 18.2966H31.6179V20.0473H30.0298V21.7061H31.4438V23.3704H30.0298V27.0446H27.7402V18.2966Z" fill="#999999"/>
<path d="M27.2182 18.2966V20.0473H25.8585V27.0446H23.5689V20.0473H22.2148V18.2966H27.2182Z" fill="#999999"/>
<path d="M21.6872 18.2966V27.0446H19.3976V18.2966H21.6872Z" fill="#999999"/>
<path d="M0 12.655L6.51384 3.70996H10.7457L0 18.5497V12.655Z" fill="#999999"/>
<path d="M0 19.7657L14.3138 0H18.525L0 25.6603V19.7657Z" fill="#999999"/>
<path d="M0 26.9794L14.7287 6.5542H18.9399L4.16968 26.9794H0Z" fill="#999999"/>
<path d="M4.99945 26.9794L21.6159 4.03967H25.8479L9.27286 26.9794H4.99945Z" fill="#999999"/>
</g>
<defs>
<clipPath id="clip0_6_21">
<rect width="78" height="27" fill="white"/>
</clipPath>
</defs>
</svg>
