<svg width="109" height="25" viewBox="0 0 109 25" fill="none" xmlns="http://www.w3.org/2000/svg">
<g clip-path="url(#clip0_6_53)">
<path d="M69.2593 16.8196C69.8354 15.197 70.6773 13.6521 71.7599 12.2309C76.3195 6.31354 82.754 2.66115 90.6839 0.820738C93.9051 0.0936218 97.2483 -0.157024 100.569 0.0796509C103.191 0.233906 105.759 0.792583 108.148 1.72863C109.111 2.1077 109.131 2.11718 108.814 3.01938C107.725 6.1808 105.773 9.07614 103.118 11.4671C102.23 12.2707 101.25 12.9834 100.329 13.7662C99.9473 14.0865 99.6145 14.0751 99.1597 13.8533C94.9925 11.8184 90.2244 10.8585 85.4321 11.0899C79.5678 11.3344 74.2982 12.9265 69.9139 16.3799C69.7741 16.4974 69.601 16.5941 69.2593 16.8196Z" fill="#999999"/>
<path d="M80.2911 20.2956C76.2263 20.2786 72.836 19.7498 69.641 18.4837C69.0131 18.2373 69.0086 18.2297 69.4857 17.7862C72.5387 14.9431 76.3816 13.2581 80.7305 12.426C83.3651 11.9305 86.072 11.7765 88.7602 11.9692C91.8599 12.1692 94.8912 12.8486 97.7064 13.9746C99.1286 14.5432 99.1353 14.5868 97.8439 15.3298C92.368 18.4856 86.3529 20.1914 80.2911 20.2956Z" fill="#999999"/>
<path d="M70.371 19.564C70.6084 19.6247 70.8502 19.6721 71.0832 19.7536C75.949 21.2699 80.9257 21.2945 85.9269 20.4587C90.7645 19.6543 95.3199 17.9084 99.2396 15.3563C99.6989 15.0606 100.056 15.017 100.493 15.3563C101.558 16.1789 102.668 16.9617 103.706 17.8089C104.329 18.3188 104.285 18.3965 103.684 18.9727C101.419 21.1594 98.5155 22.7943 95.2702 23.7111C87.9482 25.8093 80.8281 25.4264 74.012 22.1948C72.6067 21.532 71.3692 20.6379 70.371 19.564Z" fill="#999999"/>
<path d="M49.3369 21.7362C47.7327 21.7362 46.2417 21.5125 45.0724 20.4682C43.8099 19.3404 43.6258 17.9359 43.8077 16.4974C44.125 13.9993 46.0553 11.2946 49.8761 10.7525C51.5446 10.5156 53.131 10.6729 54.378 11.7949C54.7276 12.1103 54.9932 12.4866 55.1567 12.8979C55.3201 13.3092 55.3776 13.7458 55.3251 14.1778C55.2727 14.6098 55.1115 15.0271 54.8527 15.4009C54.5938 15.7748 54.2434 16.0964 53.8255 16.3438C52.6984 17.0034 51.3982 17.2347 50.0536 17.3275C49.3169 17.3787 48.5825 17.4299 47.8459 17.4697C47.3888 17.4924 47.2801 17.7066 47.3844 18.0383C47.5752 18.66 48.1454 18.9424 48.7889 19.1395C49.845 19.4636 50.9012 19.3177 51.9529 19.1092C52.4477 19.0125 52.938 18.9007 53.4306 18.7946C53.526 19.257 53.6103 19.7195 53.7168 20.1763C53.8411 20.6975 53.6502 21.0273 53.0157 21.1543C52.3811 21.2813 51.7399 21.4727 51.092 21.5751C50.5262 21.6736 49.9316 21.6907 49.3369 21.7362ZM48.6824 15.1649C49.3936 15.0944 50.0996 14.9894 50.7969 14.8503C51.6178 14.6607 52.0017 14.1888 51.8841 13.7263C51.7487 13.2013 51.1785 12.9227 50.3065 12.9682C49.1328 13.0212 48.4405 13.6543 47.9147 14.4523C47.5375 15.0284 47.6462 15.163 48.689 15.1649H48.6824Z" fill="#999999"/>
<path d="M16.7718 21.7267C15.6948 21.776 14.6212 21.5874 13.6544 21.179C13.101 20.9509 12.6181 20.6149 12.2446 20.1981C11.8711 19.7813 11.6176 19.2953 11.5044 18.7794C10.7079 15.4303 12.4829 12.3351 15.8954 11.105C17.2278 10.6033 18.7249 10.52 20.1222 10.87C21.6221 11.2491 22.6072 12.1968 22.7448 13.3984C22.9223 14.9375 22.3299 15.9364 20.8167 16.6092C19.7502 17.0523 18.5871 17.3002 17.4019 17.337C16.6653 17.3806 15.9287 17.4299 15.1832 17.4754C14.8437 17.4962 14.7394 17.6422 14.8304 17.9189C15.0323 18.605 15.5914 18.969 16.3391 19.1793C17.4485 19.4902 18.5313 19.3044 19.6141 19.0846C19.8996 19.0217 20.1792 18.9406 20.4505 18.842C20.7434 18.7377 20.9875 18.7567 21.0252 19.0542C21.1203 19.5827 21.1515 20.1181 21.1184 20.652C21.0962 20.8416 20.719 21.0823 20.4528 21.1657C19.8282 21.3577 19.1853 21.5029 18.5313 21.5997C17.9566 21.6869 17.3598 21.6888 16.7718 21.7267ZM17.9655 12.9511C17.375 12.9746 16.8059 13.147 16.3301 13.4465C15.8542 13.7461 15.4929 14.1594 15.2919 14.6342C15.1854 14.9318 15.3185 15.0796 15.6336 15.0607C16.5455 15.0076 17.4707 14.9944 18.356 14.8276C19.1348 14.6816 19.4832 14.1585 19.3567 13.6657C19.2413 13.2203 18.7177 12.9549 17.9655 12.9549V12.9511Z" fill="#999999"/>
<path d="M28.3006 21.685C28.0055 21.685 27.706 21.7059 27.4131 21.685C25.84 21.5618 24.8815 20.7374 24.9391 19.3784C24.9835 18.3795 25.2343 17.3825 25.4184 16.3894C25.5471 15.7051 25.7179 15.0266 25.8622 14.3443C26.0397 13.5425 26.0308 13.5577 25.0678 13.2658C24.9675 13.2198 24.882 13.1533 24.8189 13.0723C24.7558 12.9913 24.7171 12.8983 24.7062 12.8014C24.7642 12.3008 24.8554 11.8035 24.9791 11.3117C25.0545 10.9667 25.3563 10.9079 25.7224 10.8795C26.7164 10.8037 26.7164 10.7904 26.8983 9.97542C26.9383 9.78588 26.9738 9.59634 27.0204 9.41818C27.0409 9.26093 27.1194 9.11333 27.2447 8.99679C27.3699 8.88024 27.5354 8.80079 27.7171 8.76995C28.5402 8.60126 29.3568 8.40225 30.1733 8.20134C30.6636 8.08572 30.7701 8.29043 30.7013 8.64297C30.6148 9.0789 30.5194 9.51105 30.4218 9.94509C30.2132 10.8662 30.211 10.8662 31.3492 10.8776C31.682 10.8776 32.0149 10.8776 32.3477 10.8776C32.7293 10.8776 32.8891 11.0255 32.7781 11.3571C32.7382 11.4766 32.736 11.6054 32.7027 11.7362C32.239 13.4534 32.7226 13.2904 30.6126 13.3037C29.7251 13.3037 29.7251 13.3189 29.5365 14.0505C29.2687 15.1296 29.0106 16.2106 28.7621 17.2935C28.7096 17.5436 28.6851 17.7975 28.6889 18.0516C28.6889 18.8268 28.8664 18.9898 29.7628 19.06C30.6969 19.1339 30.6969 19.1339 30.5527 19.9413C30.5527 19.9735 30.5394 20.0038 30.5349 20.0361C30.3951 21.6964 30.3219 21.6737 28.3006 21.685Z" fill="#999999"/>
<path d="M5.40513 21.6736C3.47035 21.7683 1.80848 21.2945 0.73237 19.8369C-0.155144 18.6447 -0.110771 17.3009 0.188765 15.9836C1.1029 11.9313 5.89549 10.108 9.79389 10.8661C10.4728 10.9988 10.5128 11.0557 10.3353 11.6243C10.3153 11.6849 10.302 11.7475 10.2776 11.8138C10.1045 12.2611 10.0557 12.7899 9.72731 13.1406C9.32572 13.5727 8.69114 13.1671 8.17417 13.1406C5.70688 13.0022 3.26844 15.144 3.88083 17.807C3.96733 18.1825 4.19601 18.5232 4.53162 18.7767C4.86723 19.0301 5.29112 19.1822 5.73795 19.2096C6.47164 19.2316 7.20596 19.1852 7.92788 19.0712C8.69558 18.9651 8.68893 18.9272 8.71112 19.6398C8.76215 21.3305 8.60905 21.4878 6.62324 21.6717C6.21755 21.6913 5.8109 21.692 5.40513 21.6736Z" fill="#999999"/>
<path d="M58.3896 21.5011C56.6301 21.5011 56.5946 21.5011 56.9096 20.0872C57.9014 15.6634 58.9354 11.2452 59.9094 6.81953C60.0337 6.26229 60.2644 6.06138 60.9057 6.10119C61.5469 6.14099 62.2369 6.10119 62.9026 6.11256C63.6237 6.12583 63.668 6.16373 63.5349 6.76835C63.1511 8.50072 62.7495 10.2293 62.359 11.9598C61.7266 14.7725 61.0876 17.5853 60.4663 20.3999C60.2267 21.4935 60.2445 21.4973 58.9487 21.5011H58.3896Z" fill="#999999"/>
<path d="M38.7888 12.809C39.3124 12.337 39.7873 11.8613 40.3153 11.4462C40.9475 10.9503 41.7757 10.6768 42.6339 10.6805C43.273 10.6805 43.3284 10.7354 43.2197 11.268C43.1376 11.6717 43.0422 12.0736 42.9401 12.4716C42.8447 12.8393 42.8492 13.2904 42.594 13.5425C42.3899 13.732 41.8507 13.677 41.4691 13.7547C40.9229 13.8535 40.4134 14.0651 39.9852 14.3711C39.557 14.6771 39.2232 15.0681 39.0129 15.5099C38.6149 16.3875 38.2959 17.2898 38.0588 18.2089C37.797 19.1225 37.6151 20.055 37.4198 20.9837C37.3444 21.3761 37.1291 21.5163 36.6854 21.5068C35.9842 21.4936 35.2831 21.5182 34.582 21.5068C33.7721 21.4898 33.7078 21.4196 33.8609 20.7089C34.3046 18.696 34.7484 16.6888 35.17 14.6721C35.3586 13.7434 35.4695 12.8014 35.5782 11.8632C35.6869 10.925 35.6736 10.8889 36.7342 10.8946C37.3887 10.8946 38.0455 10.9534 38.7 10.9875C38.7 11.5087 38.7 12.03 38.7134 12.5493C38.7282 12.6378 38.7535 12.7248 38.7888 12.809Z" fill="#999999"/>
</g>
<defs>
<clipPath id="clip0_6_53">
<rect width="109" height="25" fill="white"/>
</clipPath>
</defs>
</svg>
