<svg width="109" height="24" viewBox="0 0 109 24" fill="none" xmlns="http://www.w3.org/2000/svg">
<path d="M24.9541 23.39C16.5581 25.4942 6.64886 22.0012 2.15798 15.2678C1.66984 14.5103 1.32815 13.6265 1.1329 12.7848C0.449501 10.0494 1.86508 7.98728 4.40341 6.47225C6.50241 5.25182 8.99192 4.70474 11.7255 4.41016C10.4075 8.70272 10.017 12.8269 12.7506 16.7407C15.4842 20.6125 19.9263 22.1275 24.9541 23.39Z" fill="#999999"/>
<path d="M24.3195 19.2658C27.2972 9.20776 22.611 3.10558 10.8469 0.580547C20.1703 -1.48157 28.3711 2.22182 32.7643 7.39815C33.9847 8.87109 34.8145 10.4282 34.9121 12.2799C34.961 13.7107 34.424 14.9312 33.4477 16.0254C31.7392 17.9191 27.4924 19.4342 24.3195 19.2658Z" fill="#999999"/>
<path d="M98.0286 11.775L101.543 17.1196H104.716L106.962 6.9353C106.962 6.9353 105.009 6.9353 103.886 6.9353C103.496 8.787 102.568 12.785 102.568 12.785L98.712 6.97738L95.6855 7.01945L93.6841 17.1196H96.8571L98.0286 11.775Z" fill="#999999"/>
<path d="M44.919 17.0775L46.9692 6.9353H47.555C47.555 6.9353 51.8018 6.97739 53.9008 7.14572C55.6093 7.27197 56.6832 8.23989 56.8296 9.71283C57.0737 11.6487 56.5856 13.4583 55.3164 15.0575C54.3889 16.1938 53.1197 16.9513 51.5577 17.0354C49.3611 17.1617 47.1644 17.0775 44.919 17.0775ZM48.6289 14.8471C51.9482 15.1417 52.534 14.7629 53.315 12.322C54.1449 9.50242 53.071 9.12366 49.8981 9.16575C49.5076 10.9754 49.0682 12.8691 48.6289 14.8471Z" fill="#999999"/>
<path d="M67.7152 12.7849C65.7138 12.7849 63.9565 12.7849 62.0527 12.7849C61.9063 13.4582 61.7598 14.0895 61.5646 14.9732C63.7612 14.9732 65.7138 14.9732 67.9104 14.9732C67.7639 15.7728 67.6175 16.362 67.4711 17.0774C64.2494 17.0774 61.0277 17.0774 57.7083 17.0774C58.4405 13.7107 59.1727 10.3861 59.9049 6.97729C63.0778 6.97729 66.1531 6.97729 69.4237 6.97729C69.2772 7.60855 69.1796 8.19773 69.0331 8.95524C66.9341 8.95524 64.9816 8.95524 62.8826 8.95524C62.7361 9.62859 62.5897 10.1336 62.4432 10.8069C64.4446 10.8069 66.1531 10.8069 68.1545 10.8069C68.008 11.4803 67.9104 12.0694 67.7152 12.7849Z" fill="#999999"/>
<path d="M86.7038 8.95533L86.3133 10.807H92.0733C92.0733 10.807 91.8293 12.0695 91.6828 12.7429C89.7791 12.7429 85.874 12.7429 85.874 12.7429L85.337 14.9312H91.8781C91.8781 14.9312 91.5364 16.3621 91.39 17.0775C88.1682 17.0775 85.0441 17.0775 81.676 17.0775C82.4082 13.6266 83.1404 10.302 83.8238 6.9353C87.1431 6.9353 90.2184 6.9353 93.4401 6.9353C93.2937 7.65073 92.952 8.95533 92.952 8.95533H86.7038Z" fill="#999999"/>
<path d="M81.9688 6.9353L81.4319 9.20782L77.3803 9.24992L75.9159 17.0775H72.6941L74.1098 9.24992L70.644 9.20782L70.8881 6.97738L81.9688 6.9353Z" fill="#999999"/>
</svg>
