<svg width="119" height="24" viewBox="0 0 119 24" fill="none" xmlns="http://www.w3.org/2000/svg">
<path d="M6.5704 1.89892C6.65499 1.84617 6.76779 1.92528 6.76779 2.0044C6.76779 2.5055 6.76779 2.95385 6.76779 3.32308C6.76779 6.17143 6.76779 9.04616 6.76779 11.8945C6.76779 16.0615 9.3621 17.8549 13.0562 18.3824C15.1711 18.6725 17.3424 18.5407 19.4292 17.7231C21.7979 16.8 23.2642 15.2967 23.8 13.1077C23.9128 12.6593 23.9692 12.1846 23.9692 11.7099C23.9974 10.3121 24.0538 9.25716 24.0538 7.75386C24.0538 7.70112 24.1384 7.67473 24.1666 7.72748C25.492 10.1011 25.6894 14.7692 23.9128 17.7758C21.9389 21.0989 18.8652 23.1033 14.8891 23.6835C10.2081 24.3693 6.28841 22.8396 3.24291 19.4638C1.80476 17.855 0.789596 16.0088 0.423008 13.9517C-0.169172 10.655 0.338415 7.59562 2.73533 4.93188C3.6659 3.90331 4.73746 3.11211 5.86542 2.34727C6.03462 2.18903 6.26021 2.05716 6.5704 1.89892Z" fill="#999999"/>
<path d="M51.8863 12.1055C51.8863 13.1077 51.8863 14.1099 51.8863 15.1121C51.8863 16.7736 51.9145 18.4616 51.8863 20.1231C51.8863 21.0198 51.8017 21.0725 50.8147 21.0989C49.9124 21.1253 49.0382 21.0989 48.1358 21.0989C47.6 21.0989 47.3745 20.8615 47.3745 20.3604C47.3745 20.0967 47.3745 19.833 47.3745 19.5692C47.3745 15.1384 47.3745 10.6813 47.3745 6.25055C47.3745 5.98682 47.3745 5.72308 47.3745 5.45934C47.3745 4.98462 47.6 4.72089 48.1358 4.72089C49.1792 4.72089 50.1944 4.72089 51.2377 4.72089C51.8863 4.72089 52.0837 5.14286 52.3375 5.59121C53.8038 8.09671 55.2984 10.5758 56.7647 13.0813C56.8493 13.2132 56.9621 13.3451 57.2159 13.6616C57.2159 12.4747 57.2159 11.4989 57.2159 10.5495C57.2159 9.0989 57.2159 7.64835 57.2159 6.1978C57.2159 4.74725 57.2159 4.72089 58.7669 4.72089C59.4719 4.72089 60.1768 4.72089 60.8818 4.72089C61.474 4.72089 61.756 4.93188 61.756 5.5121C61.756 5.72308 61.756 5.96045 61.756 6.17144C61.756 10.6022 61.756 15.0593 61.756 19.4901C61.756 19.7539 61.756 20.0176 61.7278 20.2813C61.6996 20.8088 61.3894 21.0989 60.8254 21.0989C59.923 21.0989 59.0207 21.1517 58.1465 21.0725C57.8081 21.0462 57.3569 20.756 57.1877 20.4659C56.088 18.6725 55.0446 16.8527 53.973 15.0593C53.3809 14.0571 52.7887 13.0813 52.1965 12.0791C52.1119 12.1055 51.9991 12.1055 51.8863 12.1055Z" fill="#999999"/>
<path d="M43.7368 10.9714C43.7368 12.6066 43.765 14.2154 43.7368 15.8505C43.7086 18.356 42.2422 20.2286 39.6479 20.9143C36.9408 21.6264 34.2619 21.5209 31.7804 20.1231C30.3986 19.3319 29.6373 18.0923 29.6091 16.6418C29.5245 13.0022 29.5809 9.33626 29.5809 5.6967C29.5809 4.85274 29.6654 4.8 30.5396 4.77362C31.442 4.74725 32.3162 4.77362 33.2185 4.77362C33.8953 4.74725 34.1491 5.03737 34.1209 5.64397C34.0927 6.48792 34.1209 7.3055 34.1209 8.14946C34.1209 10.7077 34.0927 13.2396 34.1209 15.7978C34.1491 17.6967 35.7846 18.6725 37.6176 17.9868C38.2662 17.7494 38.7455 17.3539 38.8583 16.6945C38.9711 16.0616 39.1121 15.4022 39.1121 14.7429C39.1403 11.8418 39.1121 8.94067 39.1403 6.03957C39.1403 4.80001 39.1685 4.80001 40.4939 4.80001C41.0015 4.80001 41.5372 4.80001 42.0448 4.80001C43.7086 4.80001 43.7086 4.8 43.7086 6.27692C43.7368 7.80659 43.7368 9.38901 43.7368 10.9714Z" fill="#999999"/>
<path d="M88.0093 8.54507C88.0093 8.8088 87.6991 8.9934 87.4453 8.86154C87.0223 8.67692 86.6839 8.49231 86.3455 8.33406C85.0766 7.64835 83.6666 7.54286 82.2567 7.70111C80.3955 7.9121 78.8446 9.36264 78.4216 11.1033C78.0832 12.4483 78.055 13.7934 78.4498 15.1385C78.901 16.589 79.6624 17.855 81.4671 18.0396C82.1439 18.1187 82.8488 18.0659 83.5256 17.8549C83.723 17.8022 83.9204 17.5121 83.9768 17.2747C84.0614 16.9846 84.0332 16.6681 84.0332 16.3517C84.0332 15.1648 84.0332 15.1648 82.7361 15.0593C81.8337 14.9802 81.8337 14.9538 81.7773 14.1099C81.6363 11.9473 81.6645 12.1582 84.5126 12.1319C85.4714 12.1319 86.4583 12.1319 87.4171 12.1319C88.4887 12.1582 88.5733 12.1846 88.6015 13.0286C88.6297 14.9275 88.6015 16.8 88.6015 18.6989C88.6015 19.1736 88.4887 19.5429 87.9811 19.7802C84.569 21.4418 81.0441 22.022 77.5474 20.1231C75.3761 18.9627 74.0507 17.1429 73.5996 14.7956C73.1202 12.2901 73.6842 10.0484 75.1223 7.91209C76.0247 6.59341 77.35 5.72308 78.7882 5.14286C81.4389 4.11429 84.1742 4.21978 86.8813 5.22198C87.7273 5.53846 88.1503 6.01319 88.0657 6.9099C87.9811 7.46374 88.0093 7.96485 88.0093 8.54507Z" fill="#999999"/>
<path d="M91.9289 12.9231C91.9289 10.5495 91.9289 8.17583 91.9289 5.8022C91.9289 4.80001 91.9853 4.74726 93.0569 4.74726C96.2434 4.72088 99.4581 4.72088 102.645 4.74726C103.716 4.74726 103.773 4.80001 103.801 5.77584C103.801 5.85496 103.801 5.96045 103.801 6.03957C103.829 7.67474 103.829 7.67472 102.137 7.67472C100.586 7.67472 99.0351 7.64835 97.4842 7.67472C96.5536 7.7011 96.5254 7.75385 96.469 8.57143C96.4408 9.23077 96.469 9.89012 96.469 10.5495C96.4408 11.1033 96.6946 11.3407 97.315 11.3407C98.6685 11.3143 100.05 11.3407 101.404 11.3407C101.77 11.3407 102.165 11.3407 102.532 11.3407C102.983 11.3407 103.18 11.578 103.237 12C103.547 14.0044 103.321 14.2681 101.122 14.2681C99.8529 14.2681 98.5839 14.2681 97.315 14.2681C96.7228 14.2681 96.4408 14.4791 96.469 15.0593C96.4972 15.7978 96.4408 16.5626 96.469 17.3011C96.4972 18.1451 96.5254 18.1978 97.456 18.1978C99.1479 18.2242 100.84 18.1978 102.532 18.1978C104.055 18.1978 104.055 18.1978 104.055 19.6747C104.055 19.8066 104.055 19.9385 104.055 20.0703C104.026 21.0462 103.97 21.0989 102.898 21.0989C99.5991 21.1253 96.328 21.1253 93.0287 21.0989C91.9572 21.0989 91.9008 21.0462 91.9008 20.044C91.929 17.6703 91.9289 15.2967 91.9289 12.9231Z" fill="#999999"/>
<path d="M106.903 12.9231C106.903 10.5495 106.903 8.17583 106.903 5.8022C106.903 4.80001 106.959 4.74726 108.002 4.72089C108.848 4.69452 109.694 4.69452 110.54 4.72089C111.668 4.74726 111.696 4.77363 111.696 5.88132C111.725 6.85715 111.696 7.8066 111.696 8.78242C111.696 11.4725 111.696 14.1363 111.696 16.8264C111.696 17.9077 111.753 17.9341 112.881 17.9341C114.573 17.9604 116.265 17.9341 117.957 17.9341C118.915 17.9341 119 18.0132 119.028 18.9099C119.028 21.389 119.226 21.0725 116.829 21.0725C114.15 21.0989 111.471 21.0725 108.792 21.0725C106.874 21.0725 106.874 21.0725 106.874 19.2264C106.903 17.1429 106.903 15.033 106.903 12.9231Z" fill="#999999"/>
<path d="M20.8673 7.06814C20.8673 8.07034 20.8391 9.09891 20.8673 10.1011C20.8955 11.1297 20.4162 11.8945 19.401 12.2901C18.3294 12.7121 17.3143 12.8703 16.0171 12.7912C14.297 12.6594 13.8458 11.789 13.8176 10.1539C13.7894 8.36045 13.7894 6.54067 13.7894 4.74726C13.7894 3.56045 13.7612 2.37364 13.7894 1.18682C13.8176 0.290121 13.9304 0.210997 14.8891 0.342865C16.8913 0.632975 18.6396 1.39781 20.247 2.53187C20.7263 2.87473 20.8955 3.2176 20.8955 3.74507C20.8673 4.87913 20.8673 5.98682 20.8673 7.06814Z" fill="#999999"/>
<path d="M70.2439 13.0549C70.2439 15.3758 70.2439 17.6967 70.2439 20.044C70.2439 21.0462 70.1875 21.0725 69.1159 21.0989C68.3264 21.1253 67.5086 21.1253 66.719 21.0989C65.7602 21.0725 65.7321 21.0198 65.6757 20.0703C65.6757 19.8857 65.6757 19.7275 65.6757 19.5429C65.6757 15.1121 65.6757 10.6813 65.6757 6.25056C65.6757 5.98682 65.6757 5.72308 65.6757 5.45935C65.6757 4.98462 65.9294 4.74726 66.437 4.74726C67.3676 4.74726 68.3264 4.72088 69.2569 4.74726C70.1311 4.77363 70.2157 4.82637 70.2157 5.6967C70.2721 8.14945 70.2439 10.6022 70.2439 13.0549Z" fill="#999999"/>
<path d="M11.2796 0.527466C11.4206 0.527466 11.5616 0.632967 11.5616 0.764835C11.5616 3.85055 11.5334 6.85713 11.5616 9.83735C11.5616 10.4967 11.6744 11.156 11.8436 11.7626C12.182 12.8967 13.028 13.6615 14.2405 13.978C16.3273 14.5319 18.3294 14.3472 20.1905 13.2395C21.2057 12.6329 21.7415 11.789 21.7133 10.6022C21.6569 8.96703 21.7133 7.35824 21.7133 5.72307C21.7133 5.32747 21.7133 4.90548 21.7133 4.43076C21.7133 4.37801 21.7697 4.35164 21.7979 4.37801C22.7284 4.74724 22.8412 5.32747 22.8412 6.1978C22.8694 7.9912 22.8412 9.41537 22.8412 11.2352C22.813 13.2659 21.8261 14.2154 20.7545 14.9538C18.7242 16.3253 16.2991 16.5363 13.9867 15.9824C11.9846 15.5077 10.1517 13.7407 10.1517 10.4967V2.34725C10.1517 2.08352 10.1517 1.81978 10.1517 1.55604C10.1799 0.65934 10.1799 0.606587 11.2796 0.527466Z" fill="#999999"/>
</svg>
