<svg width="129" height="22" viewBox="0 0 129 22" fill="none" xmlns="http://www.w3.org/2000/svg">
<path d="M24.5137 6.863L26.9758 6.90664L22.4404 11.0071L26.9758 14.5842L24.6433 14.6278C24.2114 15.413 23.7362 16.329 23.2179 17.1579C21.7493 19.5571 19.8056 21.5638 15.3998 21.5638H8.57513C7.23612 21.5638 5.89712 21.1275 5.07643 20.5604C1.14578 17.8559 -0.452402 14.0171 0.10912 9.30587C0.627448 5.24899 2.91671 2.41353 6.45862 0.581389C7.19291 0.188788 8.09999 0.101537 8.92068 0.0579151C10.994 -0.0293297 15.1838 0.0143033 15.1838 0.0143033C18.1642 -0.160186 20.2807 1.27933 22.0517 3.37321C22.9587 4.37652 24.5137 6.863 24.5137 6.863ZM13.8016 1.32298C12.9809 0.930374 11.9874 0.973991 11.21 1.45384C9.09345 2.76251 7.58168 4.72552 6.58822 7.12475C5.89712 8.7824 5.59476 10.4401 5.94031 12.2286C6.50183 15.2821 8.57513 17.8558 11.3827 19.5571C12.8081 20.4296 13.8448 20.3424 15.0974 19.1645C16.4364 17.9431 17.7323 16.1982 18.5961 14.4533L16.2205 14.4097L21.231 10.8763L15.9181 6.863L18.4234 6.81939C18.4234 6.90663 16.0477 2.45716 13.8016 1.32298ZM45.722 4.89999C46.8018 5.77244 47.4497 6.99389 47.7521 8.52067H43.7782C43.6487 7.9972 43.4327 7.56096 43.0439 7.29922C42.6984 6.99387 42.2232 6.863 41.6617 6.863C41.0138 6.863 40.4523 7.12475 40.0204 7.64822C39.5884 8.17169 39.3724 8.95689 39.3724 9.9602C39.3724 10.9635 39.5884 11.7487 40.0204 12.2722C40.4523 12.7957 40.9706 13.0574 41.6617 13.0574C42.2232 13.0574 42.6984 12.9265 43.0439 12.6212C43.3895 12.3158 43.6487 11.9232 43.7782 11.3997H47.7521C47.4929 12.9265 46.8018 14.148 45.722 15.0204C44.6421 15.8929 43.3463 16.3291 41.7481 16.3291C40.5387 16.3291 39.502 16.0673 38.5518 15.5439C37.6015 15.0204 36.9104 14.2788 36.3489 13.3191C35.8305 12.3594 35.5714 11.2253 35.5714 9.9602C35.5714 8.65153 35.8305 7.51734 36.3489 6.60127C36.8672 5.6852 37.6015 4.9 38.5518 4.42015C39.502 3.89669 40.5387 3.63496 41.7481 3.63496C43.3463 3.59133 44.6421 4.02754 45.722 4.89999ZM58.6802 4.37654C59.6304 4.90001 60.4079 5.64158 60.9262 6.60127C61.4446 7.56097 61.7469 8.69516 61.7469 9.9602C61.7469 11.2253 61.4878 12.3594 60.9262 13.3191C60.3647 14.2788 59.6304 15.0204 58.6802 15.5439C57.7299 16.0673 56.65 16.3291 55.4406 16.3291C54.2312 16.3291 53.1513 16.0673 52.1579 15.5439C51.2076 15.0204 50.4301 14.2788 49.8686 13.3191C49.3071 12.3594 49.0479 11.2253 49.0479 9.9602C49.0479 8.69516 49.3071 7.56097 49.8686 6.60127C50.4301 5.64158 51.1644 4.90001 52.1579 4.37654C53.1081 3.85307 54.2312 3.59132 55.4406 3.59132C56.65 3.59132 57.7299 3.85307 58.6802 4.37654ZM53.6265 7.64822C53.1514 8.17169 52.8922 8.91325 52.8922 9.91657C52.8922 10.9199 53.1514 11.6615 53.6265 12.185C54.1016 12.7084 54.7063 12.9701 55.4406 12.9701C56.1749 12.9701 56.7364 12.7084 57.2547 12.185C57.7299 11.6615 57.9891 10.9199 57.9891 9.91657C57.9891 8.91325 57.7299 8.17169 57.2547 7.64822C56.7796 7.12475 56.1749 6.863 55.4406 6.863C54.7063 6.863 54.1016 7.12475 53.6265 7.64822ZM74.0572 4.37654C74.8347 4.90001 75.4826 5.59797 75.9578 6.55766C76.4329 7.51736 76.6488 8.65152 76.6488 9.91657C76.6488 11.1816 76.4329 12.3158 75.9578 13.2755C75.4826 14.2352 74.8779 14.9768 74.0572 15.5003C73.2797 16.0237 72.3727 16.2854 71.336 16.2854C70.3858 16.2854 69.6082 16.0673 68.9171 15.6311C68.226 15.1949 67.7509 14.6278 67.4486 13.8862V22H63.6907V3.76582H67.4486V5.99055C67.7509 5.24897 68.226 4.68188 68.9171 4.24565C69.6082 3.80943 70.3858 3.59132 71.336 3.59132C72.3727 3.59132 73.2797 3.85307 74.0572 4.37654ZM68.1828 7.73545C67.6645 8.25891 67.4053 9.00051 67.4053 9.9602C67.4053 10.8763 67.6645 11.6178 68.1828 12.1413C68.7012 12.7084 69.3491 12.9701 70.1266 12.9701C70.9473 12.9701 71.5952 12.7084 72.0703 12.185C72.5454 11.6615 72.8046 10.9199 72.8046 9.9602C72.8046 9.00051 72.5454 8.25891 72.0703 7.73545C71.5952 7.21198 70.9473 6.95025 70.1266 6.95025C69.3491 6.90663 68.7012 7.16835 68.1828 7.73545ZM90.1254 10.6145H81.6162C81.6594 11.5306 81.8753 12.2286 82.3073 12.6212C82.7392 13.0138 83.2575 13.2319 83.9486 13.2319C84.5102 13.2319 84.9853 13.101 85.3308 12.7956C85.6764 12.5339 85.9356 12.1413 86.0652 11.7051H90.039C89.8662 12.5775 89.5207 13.3627 89.0023 14.0607C88.4408 14.7587 87.7929 15.2822 86.929 15.6748C86.1084 16.0674 85.1581 16.2418 84.1214 16.2418C82.912 16.2418 81.8753 15.9801 80.9251 15.4566C79.9748 14.9332 79.2837 14.1916 78.7222 13.2319C78.2039 12.2722 77.9447 11.138 77.9447 9.87295C77.9447 8.56428 78.2039 7.43009 78.7222 6.51402C79.2405 5.59795 79.9748 4.81275 80.9251 4.3329C81.8753 3.80944 82.912 3.54771 84.1214 3.54771C85.3309 3.54771 86.4107 3.80945 87.3178 4.28929C88.2249 4.76914 88.9592 5.5107 89.4775 6.42677C89.9958 7.34284 90.255 8.38979 90.255 9.56759C90.2118 9.91657 90.1686 10.2656 90.1254 10.6145ZM85.7628 7.212C85.3308 6.8194 84.7693 6.60127 84.1214 6.60127C83.4303 6.60127 82.8688 6.8194 82.3937 7.212C81.9617 7.6046 81.7026 8.21529 81.6162 9.04412H86.4107C86.4539 8.21529 86.2379 7.6046 85.7628 7.212ZM103.3 5.03088C104.12 5.99057 104.552 7.25561 104.552 8.91326V16.111H100.794V9.39312C100.794 8.56429 100.578 7.90995 100.146 7.47372C99.7145 6.99388 99.1529 6.77577 98.4186 6.77577C97.6411 6.77577 97.0364 7.03749 96.6045 7.51733C96.1726 7.99718 95.9566 8.69516 95.9566 9.61123V16.1546H92.1987V3.76582H95.9566V6.03419C96.3022 5.29261 96.8205 4.72552 97.5116 4.28929C98.2027 3.85307 99.0233 3.63496 99.9736 3.63496C101.356 3.63496 102.479 4.07119 103.3 5.03088ZM115.999 4.37654C116.949 4.90001 117.726 5.64158 118.245 6.60127C118.763 7.56097 119.065 8.69516 119.065 9.9602C119.065 11.2253 118.806 12.3594 118.245 13.3191C117.683 14.2788 116.949 15.0204 115.999 15.5439C115.048 16.0673 113.968 16.3291 112.759 16.3291C111.55 16.3291 110.47 16.0673 109.476 15.5439C108.526 15.0204 107.749 14.2788 107.187 13.3191C106.626 12.3594 106.366 11.2253 106.366 9.9602C106.366 8.69516 106.626 7.56097 107.187 6.60127C107.749 5.64158 108.483 4.90001 109.476 4.37654C110.427 3.85307 111.55 3.59132 112.759 3.59132C113.925 3.59132 115.048 3.85307 115.999 4.37654ZM110.902 7.64822C110.427 8.17169 110.167 8.91325 110.167 9.91657C110.167 10.9199 110.427 11.6615 110.902 12.185C111.377 12.7084 111.982 12.9701 112.716 12.9701C113.45 12.9701 114.012 12.7084 114.53 12.185C115.005 11.6615 115.264 10.9199 115.264 9.91657C115.264 8.91325 115.005 8.17169 114.53 7.64822C114.055 7.12475 113.45 6.863 112.716 6.863C111.982 6.863 111.42 7.12475 110.902 7.64822ZM126.581 4.28929C127.315 3.85307 128.136 3.63496 129 3.63496V7.69183H127.92C126.927 7.69183 126.149 7.90995 125.588 8.34617C125.026 8.78239 124.767 9.48035 124.767 10.5273V16.1546H121.009V3.76582H124.767V6.0778C125.242 5.33622 125.847 4.72552 126.581 4.28929Z" fill="#999999"/>
</svg>
