<svg width="51" height="51" viewBox="0 0 51 51" fill="none" xmlns="http://www.w3.org/2000/svg">
<g clip-path="url(#clip0_6_47)">
<path d="M23.9527 7.6053H26.9127C27.2491 7.6053 27.5182 7.33721 27.5182 7.0021C27.5182 6.667 27.2491 6.39891 26.9127 6.39891H23.9527V7.6053ZM23.9527 10.4202H26.98C27.3837 10.4202 27.6528 10.1521 27.6528 9.74999C27.6528 9.34786 27.3837 9.07977 26.98 9.07977H23.9527V10.4202ZM28.7291 8.27551C29.1328 8.67764 29.4019 9.21381 29.4019 9.81701C29.4019 11.0234 28.46 11.9617 27.2491 11.9617H22.3382V4.92444H27.1818C28.3255 4.92444 29.2673 5.86274 29.2673 7.0021C29.2 7.47125 28.9982 7.94041 28.7291 8.27551ZM29.8728 20.3394H28.0564L27.5182 19.133H23.5491L23.0109 20.3394H21.1945L24.6927 13.3021H26.3073L29.8728 20.3394ZM25.5 15.1117L24.2891 17.6585H26.7109L25.5 15.1117ZM27.9219 21.8809H29.9401L26.3746 26.4383V28.9181H24.6927V26.4383L21.1272 21.8809H23.1454L25.5673 25.0979L27.9219 21.8809ZM37.2729 21.8809V23.4224H32.5637V24.6288H37.1383V26.1702H32.5637V27.5107H37.2729V29.0522H30.8819V21.8809H37.2729ZM42.4529 26.2373H41.1747V28.9181H39.4929V21.8809H43.7984C45.0093 21.8809 45.9511 22.8862 45.9511 24.0926C45.9511 25.0979 45.2784 25.9022 44.4038 26.1702L46.4893 28.9181H44.4711L42.4529 26.2373ZM43.6638 23.3553H41.242V24.6958H43.6638C44.0675 24.6958 44.3366 24.3607 44.3366 24.0256C44.3366 23.6905 44.0002 23.3553 43.6638 23.3553ZM21.8672 28.9181H20.0509L19.5127 27.7117H15.5435L15.0053 28.9181H13.189L16.7545 21.8809H18.369L21.8672 28.9181ZM17.4945 23.6905L16.2835 26.2373H18.7727L17.4945 23.6905ZM6.79799 24.5617H9.75802C10.0944 24.5617 10.3635 24.2936 10.3635 23.9585C10.3635 23.6234 10.0944 23.3553 9.75802 23.3553H6.79799V24.5617ZM6.79799 27.3766H9.82529C10.2289 27.3766 10.498 27.1085 10.498 26.7064C10.498 26.3043 10.2289 26.0362 9.82529 26.0362H6.79799V27.3766ZM11.5744 25.2319C11.978 25.6341 12.2471 26.1702 12.2471 26.7734C12.2471 27.9798 11.3053 28.9181 10.0944 28.9181H5.11615V21.8809H9.95984C11.1035 21.8809 12.0453 22.8192 12.0453 23.9585C12.0453 24.4277 11.8435 24.8968 11.5744 25.2319ZM28.7291 30.3926V31.9341H24.02V33.1405H28.5946V34.682H24.02V36.0224H28.7291V37.5639H22.3382V30.3926H28.7291ZM27.5182 41.3171C27.5182 40.915 27.2491 40.6469 26.8455 40.6469H23.9527V41.9873H26.8455C27.2491 41.9873 27.5182 41.7192 27.5182 41.3171ZM22.2709 46.2097V39.1724H26.98C28.1909 39.1724 29.1328 40.1777 29.1328 41.3841C29.1328 42.3224 28.5946 43.0597 27.7873 43.3948L29.9401 46.2097H27.9219L25.9036 43.5288H23.9527V46.2097H22.2709Z" fill="#999999"/>
<path d="M50.9969 23.8915C50.1896 10.6213 39.0895 0.0318604 25.5002 0.0318604C11.911 0.0318604 0.810882 10.6213 0.00360107 23.8915C0.00360107 24.4277 0.0708745 24.9639 0.138148 25.5C0.676336 29.9234 2.35817 34.0118 4.91456 37.4299C9.55643 43.7299 17.0238 47.8182 25.5002 47.8182C13.6601 47.8182 3.97273 38.6362 3.16545 27.1085C3.09818 26.5724 3.09818 26.0362 3.09818 25.5C3.09818 24.9639 3.09818 24.4277 3.16545 23.8915C3.97273 12.3638 13.6601 3.18187 25.5002 3.18187C33.9767 3.18187 41.444 7.27018 46.0859 13.5702C48.6423 16.9883 50.3241 21.0766 50.8623 25.5C50.9296 26.0362 50.9969 26.5724 50.9969 27.0415C50.9969 26.5053 51.0641 25.9692 51.0641 25.433C51.0641 24.9639 51.0641 24.4277 50.9969 23.8915Z" fill="#999999"/>
<path d="M0.00336964 27.1086C0.810651 40.3788 11.9108 50.9682 25.5 50.9682C39.0892 50.9682 50.1894 40.3788 50.9966 27.1086C50.9966 26.5724 50.9294 26.0362 50.8621 25.5C50.3239 21.0766 48.6421 16.9883 46.0857 13.5702C41.4438 7.2702 33.9765 3.18188 25.5 3.18188C37.3401 3.18188 47.0275 12.3638 47.8348 23.8915C47.9021 24.4277 47.9021 24.9639 47.9021 25.5C47.9021 26.0362 47.9021 26.5724 47.8348 27.1086C47.0275 38.7033 37.3401 47.8182 25.5 47.8182C17.0236 47.8182 9.5562 43.7299 4.91433 37.4299C2.35794 34.0118 0.676104 29.9235 0.137917 25.5C0.0706431 24.9639 0.00336964 24.4277 0.00336964 23.9585C0.00336964 24.4947 -0.0639038 25.0309 -0.0639038 25.5671C-0.0639038 26.0362 -0.0639038 26.5724 0.00336964 27.1086Z" fill="#999999"/>
</g>
<defs>
<clipPath id="clip0_6_47">
<rect width="51" height="51" fill="white"/>
</clipPath>
</defs>
</svg>
