<svg width="106" height="22" viewBox="0 0 106 22" fill="none" xmlns="http://www.w3.org/2000/svg">
<path d="M105.855 15.0574C105.855 16.446 105.938 16.9509 105.917 18.3394C105.896 19.4394 105.461 19.6558 104.278 19.2771C102.577 18.7181 101.416 17.2755 101.374 15.5443C101.333 13.7951 101.395 12.064 101.333 10.3148C101.291 8.87219 100.15 7.62793 98.636 7.21317C97.1424 6.78039 95.4415 7.19514 94.4458 8.31317C94.0516 8.74596 93.8027 9.30497 93.6368 9.84596C93.4708 10.3509 93.4916 10.9099 93.4708 11.4509C93.4501 13.4345 93.4708 15.4181 93.4501 17.4017C93.4293 18.7361 92.5788 19.4935 91.2097 19.4935C89.8407 19.4935 88.9487 18.7001 88.9279 17.4197C88.9072 15.2558 88.9487 13.0919 88.8865 10.9279C88.8657 10.2246 88.6998 9.46727 88.3471 8.85415C87.5796 7.48366 85.8164 6.81645 84.1569 7.14104C82.373 7.48366 81.1076 8.7099 81.0246 10.3148C80.9416 11.7755 81.0039 13.2542 80.9831 14.7328C80.9831 15.2378 80.9831 15.7607 80.8794 16.2656C80.5683 17.7443 79.6348 18.7902 77.9961 19.3132C76.8759 19.6738 76.4403 19.4214 76.4403 18.3935C76.4195 15.7427 76.3366 13.1099 76.4818 10.4591C76.6477 7.48367 78.245 5.13941 81.3773 3.82301C84.4888 2.52465 87.5174 2.88531 90.2348 4.72465C90.9193 5.1935 91.3964 5.21154 92.1017 4.72465C94.8191 2.86727 97.8685 2.54268 100.959 3.80497C103.967 5.0312 105.647 7.21318 105.834 10.1345C105.917 11.4869 105.855 12.8394 105.855 14.1919V15.0574Z" fill="#999999"/>
<path d="M73.5154 18.4656C73.1213 19.1148 72.3745 19.4213 71.3996 19.259C69.5741 18.9525 68.1635 18.0869 67.5412 16.5541C67.1056 15.4902 66.9397 14.3541 66.753 13.218C66.6078 12.2803 66.4626 12.0279 65.4461 12.1541C63.9526 12.3525 62.4383 12.5689 61.0485 13.0017C59.8868 13.3623 59.4927 14.1197 59.6587 14.8951C59.8661 15.8148 60.6129 16.3017 61.5878 16.4279C62.3968 16.5361 63.2266 16.518 64.0563 16.4639C65.3009 16.3918 66.0892 16.7885 66.2344 17.6721C66.3796 18.5197 65.8403 19.1508 64.6371 19.3312C62.8117 19.6017 60.9863 19.6377 59.2023 19.1869C56.7131 18.5377 55.1988 16.9689 55.0951 14.9312C54.9706 12.7131 56.0907 11.0722 58.7252 10.3508C60.7996 9.77379 63.0399 9.59346 65.1972 9.23281C66.3796 9.03514 66.587 9.12101 66.67 8.60166C66.7737 7.95248 66.1514 7.1951 65.3217 7.12297C64.0978 6.99674 62.8324 7.0328 61.5878 6.99674C59.6587 6.94264 58.1029 5.9869 57.5428 4.50822C57.1487 3.49838 57.3354 3.24592 58.5178 3.22789C59.5549 3.20986 59.1193 3.17379 60.1565 3.17379C60.1565 3.15575 61.6293 3.19182 61.6293 3.17378C62.9984 3.22788 64.409 3.17378 65.7573 3.35411C69.1178 3.7869 70.9639 5.51805 71.2129 8.49346C71.3166 9.84592 71.2751 11.1984 71.2336 12.5508C71.1921 14.0656 71.4203 15.4 73.0383 16.3377C73.8058 16.7705 73.9303 17.7623 73.5154 18.4656Z" fill="#999999"/>
<path d="M53.7675 11.4509C53.809 12.082 53.4356 12.3886 52.7095 12.3886C51.4027 12.3886 50.0751 12.3886 48.7682 12.3886H46.9843C45.5322 12.3886 45.8641 12.3705 44.4121 12.2984C43.1882 12.2443 42.2548 11.7033 41.7362 10.6935C41.3213 9.882 41.5287 9.57544 42.5452 9.55741C44.3499 9.53938 46.1338 9.55742 47.9385 9.53938C49.1416 9.52135 49.3698 9.26889 49.0587 8.27709C48.706 7.08692 47.897 6.25741 46.5487 5.82462C43.2919 4.79675 39.89 6.72626 39.7033 9.73774C39.6618 10.3328 39.7033 10.9459 39.6825 11.541C39.4751 15.364 44.0594 17.3115 47.7518 15.8509C48.0007 15.7607 48.2289 15.6164 48.4986 15.5263C49.4113 15.1836 50.407 15.4361 50.8634 16.1033C51.3405 16.7886 51.1538 17.7804 50.407 18.3033C50.2203 18.4295 50.0129 18.5558 49.7847 18.6279C46.0923 19.9263 42.5037 19.9263 39.081 18.0148C37.1518 16.9328 35.9694 15.364 35.5338 13.4345C35.1189 11.5951 35.1189 9.71971 35.8657 7.91643C37.1103 4.88692 40.3671 2.84922 44.0595 2.68692C46.8806 2.56069 49.4113 3.0656 51.382 4.97708C52.5643 6.11315 53.2074 7.44758 53.4771 8.92626C53.6638 9.77381 53.7052 10.6213 53.7675 11.4509Z" fill="#999999"/>
<path d="M35.5131 2.79511C35.4924 4.58036 34.1025 5.91478 32.0489 6.13118C30.099 6.32954 28.7714 7.66396 28.7092 9.57543C28.647 11.7754 28.6884 13.9574 28.6884 16.1574C28.6884 16.6263 28.6677 17.1131 28.5847 17.6C28.3565 18.7902 27.4231 19.4935 26.0955 19.4754C24.7886 19.4574 23.71 18.664 23.627 17.4558C23.544 16.1033 23.6063 14.7508 23.6063 13.3984H23.5855C23.5855 12.3164 23.5648 11.2345 23.5855 10.1525C23.6685 5.57216 27.7135 1.33446 34.6419 1.96561C35.2434 2.03774 35.5131 2.27216 35.5131 2.79511Z" fill="#999999"/>
<path d="M11.9276 5.53609C9.58353 7.4656 7.50917 9.6115 5.87042 12.0279C5.08216 13.182 4.43911 14.4262 3.87904 15.6885C3.56788 16.3738 3.48491 17.1492 3.46416 17.8885C3.44342 18.5918 3.65086 19.2951 3.77532 20.1426C1.59724 18.8984 0.456338 17.2213 0.186671 15.1295C-0.0622531 13.2 0.352617 11.3066 1.49352 9.64756C3.63011 6.56395 5.93266 3.57052 8.17297 0.522975C8.58784 -0.0540739 8.98197 -0.0360411 9.41759 0.522975C10.3096 1.67707 11.1808 2.83117 12.135 3.93116C12.6121 4.54428 12.5914 4.97707 11.9276 5.53609Z" fill="#999999"/>
<path d="M13.2137 18.0328C13.1722 20.4312 11.5542 21.8377 8.79528 21.8738C6.11935 21.9099 4.27316 20.4131 4.31465 18.1049C4.33539 17.0771 4.58432 15.9771 5.08217 15.0574C5.9534 13.4705 7.0943 11.9738 8.13148 10.459C8.38041 10.1164 8.73305 9.75576 9.16867 10.2787C10.8696 12.2984 12.5706 14.3181 13.0685 16.8607C13.1514 17.2394 13.1722 17.6361 13.2137 18.0328Z" fill="#999999"/>
<path d="M17.5284 14.5164C17.4661 16.7164 16.4082 18.5017 14.4376 19.8902C14.2094 20.0525 13.9397 20.1607 13.6908 20.3049C14.8939 16.4459 12.7159 13.5607 10.517 10.6935C9.33464 9.16068 9.27241 9.17872 10.683 7.82626C11.409 7.14102 12.1558 6.4738 12.9026 5.82461C13.0063 5.73445 13.1307 5.69839 13.2137 5.64429C13.3174 5.66232 13.4211 5.66232 13.4419 5.69838C15.5992 8.33117 17.6321 11.0541 17.5284 14.5164Z" fill="#999999"/>
</svg>
