<svg width="52" height="48" viewBox="0 0 52 48" fill="none" xmlns="http://www.w3.org/2000/svg">
<g clip-path="url(#clip0_38_206)">
<path fill-rule="evenodd" clip-rule="evenodd" d="M8.6471 6.3199L16.9626 3.93286L27.802 0.811048C33.0601 -0.700674 38.574 -0.0702876 43.0827 2.46129C48.0395 5.23981 51.5092 10.1243 51.763 16.1632C51.915 19.825 51.8304 21.6725 51.9851 25.3317C52.2408 31.3766 49.1875 36.4418 44.4825 39.4752C40.1959 42.2397 34.7415 43.1532 29.3624 41.9285L18.2771 39.411L9.77922 37.4757C6.92214 36.8252 4.48342 34.922 2.77829 32.4567C1.09306 29.9821 0.135382 27.0744 0.016382 24.0709V20.2366C-0.119678 17.2562 0.594072 14.2992 2.07245 11.7183C3.57137 9.16065 5.84554 7.12495 8.6471 6.3199ZM10.2927 9.27308C12.4208 8.77519 14.6943 8.23983 17.1132 7.667L25.5556 5.68751C27.437 5.23403 29.3891 5.16758 31.2964 5.49208C33.2036 5.81659 35.0271 6.52545 36.6588 7.57666C40.073 9.80308 42.4304 13.485 42.6069 17.8997C42.7205 20.5765 42.595 21.4403 42.706 24.1171C42.8924 28.5338 40.8502 32.3483 37.6343 34.7413C34.6245 36.9898 30.6948 37.9254 26.7056 37.2147L18.1125 35.6909L11.1731 34.4643C8.76606 34.0367 6.67629 32.537 5.20314 30.5354C3.7322 28.4996 2.77829 26.385 2.79812 23.5449C2.73071 21.9616 2.73864 22.2666 2.77829 20.7328C2.77829 18.0274 3.35726 15.6362 4.66186 13.5111C5.9645 11.4333 7.93332 9.82918 10.2927 9.27308Z" fill="url(#paint0_linear_38_206)"/>
<path d="M10.6958 23.7197C10.6974 24.1166 10.6483 24.5121 10.5498 24.8966C10.4754 25.2154 10.3415 25.5175 10.1551 25.7872C9.96504 26.0524 9.69582 26.2514 9.38563 26.356C8.96766 26.4732 8.53174 26.5137 8.09917 26.4757L6.80876 26.4149C5.92481 26.3737 5.33486 26.1461 5.03297 25.7381C4.73109 25.3301 4.56337 24.6083 4.5614 23.555C4.5614 23.1627 4.5614 22.7704 4.5614 22.378L6.2267 22.3388V22.6703C6.2267 23.2588 6.28589 23.6511 6.40033 23.8472C6.51477 24.0434 6.73181 24.1336 7.06132 24.1356H7.89791C8.01744 24.15 8.1387 24.1336 8.24999 24.0879C8.36128 24.0422 8.45884 23.9688 8.53325 23.8747C8.64901 23.6955 8.70754 23.3359 8.70886 22.7958V16.9113L10.7037 16.6857V23.7237L10.6958 23.7197ZM18.304 18.5668L14.3993 18.8532V21.3914L18.304 21.256C18.445 21.264 18.5857 21.237 18.7135 21.1774C18.8413 21.1178 18.9521 21.0276 19.0361 20.9147C19.1801 20.6951 19.2551 20.3106 19.2551 19.7555C19.2551 19.3161 19.1762 19.0023 19.0222 18.812C18.9329 18.7144 18.8203 18.6407 18.6948 18.5979C18.5692 18.555 18.4348 18.5443 18.304 18.5668ZM18.4007 15.8207C19.7819 15.6657 20.7507 15.8207 21.2755 16.3071C21.5728 16.6076 21.7781 16.9858 21.8675 17.3977C22.012 17.9908 22.0784 18.6001 22.0648 19.2102C22.0648 20.2086 21.9444 20.9599 21.7076 21.4542C21.5931 21.6943 21.4281 21.9072 21.2239 22.0788C21.0198 22.2503 20.781 22.3764 20.5238 22.4487C20.9661 22.5602 21.3534 22.8262 21.6149 23.198C21.8799 23.6276 22.0091 24.1264 21.9858 24.6299V27.0014L19.2117 26.8758V25.1771C19.2117 24.7378 19.1288 24.4337 18.967 24.269C18.8052 24.1042 18.4915 24.0198 18.0298 24.0179L14.3815 24.0002V26.6522L12.1342 26.5502V16.517L18.4007 15.8148V15.8207ZM34.8426 18.8787V18.7414C34.8426 18.2098 34.6788 17.8371 34.3374 17.6115C33.9961 17.386 33.4949 17.3055 32.7905 17.3585L29.8644 17.5703C28.6806 17.6586 27.9288 17.8744 27.5993 18.2157C27.2698 18.557 27.1021 19.2219 27.1021 20.2184V21.9426C27.1021 22.8357 27.2836 23.4484 27.6467 23.7805C28.0117 24.1179 28.7437 24.2925 29.8605 24.3023L31.9717 24.318C33.1713 24.318 33.9705 24.2042 34.3572 23.9433C34.7439 23.6825 34.9491 23.1842 34.9491 22.4663V22.3192L39.1873 22.2525C39.1873 22.2721 39.1873 22.3094 39.1972 22.3565C39.2209 22.7743 39.2248 23.0842 39.2248 23.2882C39.2495 24.0572 39.1332 24.8242 38.8815 25.5518C38.6747 26.1101 38.3025 26.5929 37.814 26.9366C37.2765 27.2887 36.6637 27.511 36.0244 27.5859C34.9973 27.7012 33.9617 27.7229 32.9306 27.6506L28.8858 27.4545C27.7216 27.3996 26.889 27.2956 26.3661 27.1328C25.8745 26.9899 25.4236 26.7338 25.0501 26.3854C24.6373 25.9907 24.3313 25.4989 24.1602 24.9555C23.9617 24.2773 23.8698 23.5726 23.8879 22.8665V19.626C23.8752 18.889 23.9608 18.1536 24.1424 17.4389C24.2784 16.891 24.545 16.3837 24.9198 15.9599C25.6203 15.2028 26.9166 14.7026 28.8897 14.477L32.9346 14.0141C33.9729 13.8689 35.0222 13.8177 36.0698 13.8611C36.6647 13.8861 37.2433 14.0616 37.7509 14.3711C38.2104 14.685 38.5563 15.1375 38.7375 15.6618C38.9694 16.3617 39.0763 17.0966 39.0532 17.8332C39.0532 18.0411 39.0532 18.2059 39.0532 18.3157C39.0532 18.4256 39.0354 18.5374 39.0255 18.6394L34.8386 18.8728L34.8426 18.8787Z" fill="url(#paint1_linear_38_206)"/>
<path d="M24.4187 43.3621L7.90046 39.155C6.90736 38.902 5.86602 38.9077 4.87572 39.1714L1.15728 40.1615C0.503205 40.3356 0.452568 41.2444 1.08324 41.4901L15.5662 47.1337C16.994 47.69 18.5806 47.679 20.0005 47.1029L24.5479 45.2578C25.4425 44.8948 25.3543 43.6004 24.4187 43.3621Z" fill="url(#paint2_linear_38_206)"/>
</g>
<defs>
<linearGradient id="paint0_linear_38_206" x1="9.71177e-09" y1="22.1373" x2="156.714" y2="22.1373" gradientUnits="userSpaceOnUse">
<stop stop-color="#43388E"/>
<stop offset="0.355" stop-color="#6A5DA5"/>
</linearGradient>
<linearGradient id="paint1_linear_38_206" x1="4.5614" y1="20.7692" x2="108.561" y2="20.7692" gradientUnits="userSpaceOnUse">
<stop stop-color="#43388E"/>
<stop offset="0.355" stop-color="#6A5DA5"/>
</linearGradient>
<linearGradient id="paint2_linear_38_206" x1="-0.912292" y1="43.3846" x2="50.6316" y2="43.3846" gradientUnits="userSpaceOnUse">
<stop stop-color="#43388E"/>
<stop offset="1" stop-color="#6A5DA5"/>
</linearGradient>
<clipPath id="clip0_38_206">
<rect width="52" height="48" fill="white"/>
</clipPath>
</defs>
</svg>
