<svg width="31" height="32" viewBox="0 0 31 32" fill="none" xmlns="http://www.w3.org/2000/svg">
<path fill-rule="evenodd" clip-rule="evenodd" d="M5.26797 0C2.35855 0 0 2.38782 0 5.33333V26.6667C0 29.6122 2.35855 32 5.26797 32H25.732C28.6414 32 31 29.6122 31 26.6667V5.33333C31 2.38781 28.6414 0 25.732 0H5.26797ZM4.25455 7.1584C4.25455 8.76735 5.45945 9.94313 6.94575 9.94313C8.43226 9.94313 9.63716 8.76735 9.63716 7.1584C9.63716 5.54969 8.43226 4.37256 6.94575 4.37256C5.45945 4.37256 4.25455 5.54969 4.25455 7.1584ZM21.8212 27.5017H26.4893V17.9701C26.4893 13.2627 23.6745 11.6572 21.0698 11.6572C18.6612 11.6572 17.0251 13.2769 16.5734 14.2256V12.0903H12.0841V27.5017H16.7521V19.1461C16.7521 16.9183 18.1099 15.8348 19.4951 15.8348C20.8052 15.8348 21.8212 16.6007 21.8212 19.0843V27.5017ZM9.27966 12.0785V27.4898H4.61184V12.0785H9.27966Z" fill="#999999"/>
</svg>
