<svg width="47" height="39" viewBox="0 0 47 39" fill="none" xmlns="http://www.w3.org/2000/svg">
<g clip-path="url(#clip0_16_91)">
<path fill-rule="evenodd" clip-rule="evenodd" d="M7.77803 5.56003L15.2599 3.45741L25.0128 0.707573C29.7438 -0.624022 34.705 -0.0687485 38.7617 2.16119C43.2216 4.60863 46.3435 8.91112 46.5719 14.2304C46.7086 17.456 46.8466 20.6803 46.9857 23.9035C47.2159 29.2281 44.4686 33.6898 40.2352 36.3618C36.3783 38.7969 31.4707 39.6015 26.6308 38.5228L16.6568 36.3052L9.01074 34.6005C6.44006 34.0275 4.2458 32.3511 2.7116 30.1795C1.19531 27.9998 0.333627 25.4385 0.226556 22.793L0.0124815 17.8185C-0.109939 15.1932 0.532262 12.5885 1.86244 10.3152C3.21111 8.06229 5.2573 6.26915 7.77803 5.56003ZM9.25871 8.16132C11.1735 7.72276 13.2191 7.25119 15.3955 6.74661L22.9916 5.00298C24.6844 4.60354 26.4408 4.545 28.1569 4.83084C29.8729 5.11668 31.5136 5.74108 32.9817 6.66704C36.0537 8.62818 38.1748 11.8714 38.3336 15.7601C38.4358 18.1179 38.5369 20.4758 38.6368 22.8336C38.8045 26.7241 36.967 30.084 34.0735 32.1919C31.3654 34.1725 27.8296 34.9966 24.2403 34.3706L16.5087 33.0284L10.2649 31.9479C8.09914 31.5712 6.21885 30.2502 4.89337 28.4872C3.56989 26.6939 2.81642 24.5499 2.72944 22.3296C2.66879 20.935 2.60932 19.5415 2.55105 18.1492C2.4461 15.9476 3.01846 13.7663 4.19228 11.8944C5.36434 10.0641 7.1358 8.65117 9.25871 8.16132Z" fill="#999999"/>
<path d="M9.78501 22.1665C9.78648 22.5243 9.74212 22.8808 9.653 23.2275C9.58576 23.5149 9.46474 23.7872 9.29621 24.0304C9.12434 24.2695 8.88093 24.4489 8.60047 24.5432C8.22257 24.6488 7.82844 24.6854 7.43733 24.6511L6.27063 24.5963C5.47142 24.5591 4.93802 24.354 4.66507 23.9862C4.39213 23.6183 4.24049 22.9676 4.23871 22.018C4.23871 21.6643 4.23871 21.3106 4.23871 20.9569L5.74436 20.9216V21.2204C5.74436 21.7509 5.79788 22.1046 5.90135 22.2814C6.00482 22.4583 6.20106 22.5396 6.49898 22.5414H7.25537C7.36344 22.5544 7.47307 22.5397 7.57369 22.4985C7.67431 22.4573 7.76252 22.391 7.8298 22.3062C7.93446 22.1447 7.98739 21.8205 7.98858 21.3336V16.0284L9.79215 15.8251V22.17L9.78501 22.1665ZM16.6639 17.521L13.1335 17.7791V20.0674L16.6639 19.9454C16.7913 19.9526 16.9186 19.9282 17.0341 19.8745C17.1496 19.8208 17.2499 19.7394 17.3258 19.6377C17.456 19.4397 17.5238 19.093 17.5238 18.5926C17.5238 18.1965 17.4524 17.9135 17.3133 17.742C17.2325 17.654 17.1307 17.5876 17.0172 17.549C16.9037 17.5103 16.7822 17.5007 16.6639 17.521ZM16.7513 15.0452C18.0001 14.9055 18.876 15.0452 19.3506 15.4838C19.6193 15.7546 19.8049 16.0956 19.8858 16.467C20.0165 17.0017 20.0764 17.551 20.0641 18.101C20.0641 19.0011 19.9553 19.6784 19.7413 20.124C19.6377 20.3405 19.4885 20.5325 19.3039 20.6871C19.1193 20.8417 18.9035 20.9554 18.6709 21.0206C19.0708 21.1212 19.421 21.3609 19.6574 21.6961C19.897 22.0835 20.0138 22.5332 19.9928 22.987V25.125L17.4846 25.0118V23.4804C17.4846 23.0843 17.4096 22.8102 17.2633 22.6617C17.1171 22.5131 16.8334 22.4371 16.416 22.4353L13.1174 22.4194V24.8102L11.0855 24.7183V15.673L16.7513 15.0399V15.0452ZM31.617 17.8021V17.6783C31.617 17.1991 31.469 16.8631 31.1603 16.6597C30.8517 16.4564 30.3986 16.3839 29.7617 16.4316L27.1161 16.6226C26.0457 16.7022 25.3661 16.8967 25.0681 17.2044C24.7702 17.5121 24.6186 18.1116 24.6186 19.0099V20.5643C24.6186 21.3696 24.7827 21.9219 25.1109 22.2213C25.441 22.5255 26.1028 22.6829 27.1125 22.6917L29.0214 22.7059C30.106 22.7059 30.8285 22.6033 31.1782 22.3681C31.5278 22.1329 31.7134 21.6837 31.7134 21.0365V20.9039L35.5453 20.8438C35.5453 20.8614 35.5453 20.895 35.5542 20.9375C35.5756 21.3141 35.5792 21.5935 35.5792 21.7775C35.6015 22.4707 35.4963 23.1623 35.2688 23.8182C35.0818 24.3215 34.7453 24.7568 34.3036 25.0667C33.8177 25.384 33.2636 25.5845 32.6856 25.652C31.7569 25.7559 30.8206 25.7755 29.8884 25.7104L26.2313 25.5335C25.1787 25.484 24.4259 25.3903 23.9532 25.2435C23.5087 25.1146 23.101 24.8838 22.7633 24.5697C22.3901 24.2138 22.1134 23.7705 21.9587 23.2806C21.7792 22.6691 21.6962 22.0339 21.7125 21.3973V18.4759C21.701 17.8114 21.7784 17.1484 21.9426 16.5041C22.0656 16.0102 22.3067 15.5528 22.6455 15.1708C23.2788 14.4882 24.4509 14.0372 26.2348 13.8339L29.8919 13.4165C30.8307 13.2857 31.7795 13.2395 32.7266 13.2786C33.2645 13.3011 33.7877 13.4594 34.2466 13.7384C34.662 14.0214 34.9747 14.4293 35.1385 14.902C35.3483 15.533 35.4449 16.1955 35.424 16.8596C35.424 17.047 35.424 17.1956 35.424 17.2946C35.424 17.3936 35.4079 17.4944 35.399 17.5864L31.6135 17.7968L31.617 17.8021Z" fill="#999999"/>
</g>
<defs>
<clipPath id="clip0_16_91">
<rect width="47" height="39" fill="white"/>
</clipPath>
</defs>
</svg>
