<svg width="32" height="32" viewBox="0 0 32 32" fill="none" xmlns="http://www.w3.org/2000/svg">
<g clip-path="url(#clip0_16_99)">
<path d="M14.2933 0.117166C8.67158 0.703833 3.64843 4.40495 1.36491 9.6425C-0.106664 13.0238 -0.35157 16.9172 0.693336 20.5014C1.984 24.9705 5.32267 28.7463 9.64267 30.6347C13.024 32.1063 16.9173 32.3512 20.5018 31.3063C25.8667 29.7596 30.0909 25.3547 31.4776 19.8823C33.6425 11.3065 28.3307 2.53786 19.7333 0.4905C17.8449 0.0424997 16.1818 -0.075047 14.2933 0.117166ZM14.5067 10.0265C15.8716 11.8398 17.024 13.3332 17.0667 13.3332C17.1093 13.3332 18.5284 11.8398 20.2027 10.0265L23.264 6.71983H25.0027L24.6293 7.11493C24.416 7.33807 23.0293 8.84229 21.5467 10.4532C20.064 12.0638 18.6133 13.6314 18.3249 13.9198L17.8133 14.4638L21.8133 19.7865C24.0107 22.7198 25.8133 25.1514 25.8133 25.1949C25.8133 25.2483 24.5018 25.2798 22.9116 25.2798L20 25.2692L17.2907 21.6425C15.424 19.1358 14.5493 18.0579 14.464 18.1225C14.4 18.1758 12.8849 19.8083 11.0933 21.7492L7.84 25.2798H7.01824C6.56 25.2798 6.18667 25.2581 6.18667 25.2265C6.18667 25.1949 7.88267 23.3381 9.95158 21.1092C12.0109 18.8798 13.7176 17.0132 13.7382 16.9816C13.7493 16.9381 12.0533 14.6238 9.97334 11.8398C7.89334 9.0665 6.18667 6.77317 6.18667 6.75141C6.18667 6.73071 7.49824 6.71983 9.10934 6.71983H12.0316L14.5067 10.0265Z" fill="#999999"/>
<path d="M8.82179 8.14933C8.86424 8.224 11.5516 11.8293 14.7734 16.1382L20.64 23.9891L21.9516 24C22.7625 24 23.2534 23.9573 23.2316 23.8933C23.2218 23.84 20.5442 20.2351 17.3018 15.8933L11.3916 8H10.0694C8.97112 8 8.74669 8.02176 8.82179 8.14933Z" fill="#999999"/>
</g>
<defs>
<clipPath id="clip0_16_99">
<rect width="32" height="32" fill="white"/>
</clipPath>
</defs>
</svg>
